# xmcd
#
# Track frame offsets: 
#        150
#        17861
#        41208
#        61940
#        83571
#        98619
#        125129
#        153984
#        175470
#        195104
#        216092
#
# Disc length: 3223 seconds
#
# Revision: 0
# Processed by: cddbd v1.5.2PL0 Copyright (c) Steve Scherf et al.
# Submitted via: ExactAudioCopyFreeDBPlugin 1.0
#
DISCID=8c0c950b
DTITLE=ANTHEM - THE WORST HABITS DIE HARD (PART 2)
DYEAR=2019
DGENRE=Heavy Metal
TTITLE0=VICTIM IN YOUR EYES
TTITLE1=GOLD&DIAMONDS
TTITLE2=BLAST
TTITLE3=FROZEN FATE
TTITLE4=ARE YOU READY?
TTITLE5=MACHINE MADE DOG
TTITLE6=HUNTING TIME
TTITLE7=ENGRAVED
TTITLE8=THE SIGN
TTITLE9=PAIN
TTITLE10=WILD ANTHEM
EXTD=
EXTT0=
EXTT1=
EXTT2=
EXTT3=
EXTT4=
EXTT5=
EXTT6=
EXTT7=
EXTT8=
EXTT9=
EXTT10=
PLAYORDER=
